# xmcd
#
# Track frame offsets: 
#        150
#        22847
#        37555
#        67230
#        107345
#        133759
#        144247
#        187576
#        219237
#        273739
#
# Disc length: 4021 seconds
#
# Revision: 1
# Processed by: cddbd v1.5.2PL0 Copyright (c) Steve Scherf et al.
# Submitted via: ExactAudioCopy v0.99pb5
#
DISCID=7e0fb30a
DTITLE=Transfargo - Mil Translit
DYEAR=2003
DGENRE=Psychedelic Rock
TTITLE0=Solara
TTITLE1=Fadeout
TTITLE2=11:11
TTITLE3=Mostar
TTITLE4=Pristine
TTITLE5=Universal Time
TTITLE6=Revisited
TTITLE7=Aura Red
TTITLE8=Unknown #98
TTITLE9=Novy Sad
EXTD=RecDec77 - EFASP120 - written and performed by Hugo Race and Dimitr
EXTD=i de Perrot
EXTT0=
EXTT1=
EXTT2=
EXTT3=
EXTT4=
EXTT5=
EXTT6=
EXTT7=
EXTT8=
EXTT9=
PLAYORDER=
